<?xml version="1.0" encoding="UTF-8"?>
<svg id="Layer_2" data-name="Layer 2" xmlns="http://www.w3.org/2000/svg" viewBox="0 0 1200 1200">
  <defs>
    <style>
      .cls-1 {
        fill: #fff;
      }

      .cls-2 {
        fill: #f2998b;
      }

      .cls-3 {
        fill: #e5ccc1;
      }

      .cls-4 {
        fill: #be9077;
      }

      .cls-5 {
        fill: #704834;
      }
    </style>
  </defs>
  <g id="Layer_3" data-name="Layer 3">
    <g>
      <g>
        <path class="cls-3" d="M822.94,147.7c-.71,5.43-.99,13.09,3.09,16.47,12.62,10.47,48.08-35.5,98.87-52.71,39.1-13.25,83.75-8.26,111.23,6.59,61.08,33,90.55,143.44,58.71,266.87-90.63-79.07-181.27-158.14-271.9-237.22Z"/>
        <path class="cls-5" d="M1103.3,412.2l-266.33-232.36c-9.67,2.36-16.32-.65-20.51-4.12-7.37-6.12-10.2-16.2-8.38-29.97l3.65-27.74,29.72,25.93c3.56-2.48,7.33-5.25,10.6-7.66,17.02-12.51,40.34-29.63,68.05-39.02,40.11-13.59,89.61-10.54,123.18,7.6,34.04,18.4,59.5,57.21,71.67,109.31,12.09,51.73,10.11,113.71-5.57,174.5l-6.07,23.53Zm-238.62-247.99l221.08,192.88c9.34-48.15,9.41-95.72-.03-136.1-10.19-43.61-30.34-75.49-56.72-89.74-21.49-11.61-61.73-18.31-99.29-5.58-23.31,7.9-43.61,22.81-59.92,34.79-1.75,1.29-3.46,2.54-5.12,3.75Z"/>
      </g>
      <path class="cls-4" d="M1023.1,785.86c-48.4,135.29-8.06,164.46-57.93,231.74-68.03,91.76-192.63,104.31-364.98,121.66-180.34,18.16-270.5,27.24-330.22-23.17-29.4-24.81-55-63.28-109.01-430.9-10.01-68.13-17.71-125.18-23.02-165.81-10.92-9.36-109.22-96.45-98.87-224.04,1.73-21.32,8.51-104.88,74.15-151.55,4.28-3.05,70.17-48.26,142.13-19.77,22.95,9.09,39.32,22.82,49.44,32.95,47.79-33.77,114.03-70.93,197.75-92.25,37.47-9.54,262.11-66.75,432.57,65.89,47.13,36.68,75.31,74.14,129.77,151.55,69.21,98.37,105.14,146.61,108.86,199.83,7.47,106.87-87.05,126.19-150.63,303.88Z"/>
      <path class="cls-3" d="M156.47,525.96c-7.52-5.42-126.94-94.33-117.41-230.63,1.05-14.96,7.17-102.53,74.16-151.55,7.87-5.76,79.28-56.34,142.13-19.77,29.13,16.95,43.42,45.06,49.44,59.3-26.58,29.08-58.64,70.34-86.51,125.2-43.76,86.12-57.25,166.52-61.8,217.45Z"/>
      <path class="cls-3" d="M380.04,1145.05c-86.53-153.46-116.03-290.14-127.45-376.57-15.16-114.7-50.19-380.47,107.82-539.05,32.2-32.32,81.11-80.98,154.49-92.25,82.66-12.7,154.87,29.12,259.54,26.36,45.13-1.19,67.14-4.11,83.95-7.37,43.5-8.43,54.41-19.4,89.08-5.81,1.93,.76,4.02,1.62,6.35,2.81,6.5,3.31,144.33,80.35,191.4,260.76,10.18,39.03,25.58,100.79,11.14,178.12,0,0-5.98,32.02-26.34,76.6,0,0,0,0,0,0-56.52,98.9-87.88,106.19-112.7,151.97-27.59,50.9-1.25,58.52-39.73,205.21-1.62,6.18-8.4,33.29-12.41,43.9-41.86,110.56-406.07,90.85-585.13,75.31Z"/>
      <path class="cls-4" d="M339.48,528.33c-57.55-46.97-35.06-172.58,20.91-246.18,35.67-46.89,107.19-99.85,173.03-85.66,55.84,12.04,94.18,69.61,107.31,59.55,10.03-7.69-12.55-41.1,.64-53.83,14.08-13.59,53.98,9.83,99.98,13.21,9.74,.71,20.36,1.05,33.07,.84,3.21-.05,11.4,.13,23.21-.34,12.82-.52,22.07-1.78,29.18-3.15,18.84-3.64,21.69-3.58,31.23-3.88,6.71-.21,13.59-.42,20.21,.8,20.51,3.79,35.24,32.18,46.35,28.97,10.37-3,3.4-30.74,17.38-40.55,13.96-9.79,40.03,4.41,52.14,11.59,97.3,57.7,174.34,184.85,173.8,254.91-.05,6.38-.77,14.75-5.79,17.38-14.16,7.4-36.64-43.55-86.9-75.31-58.82-37.18-134.53-34.69-208.12-32.26-7.01,.23-11.96,.52-21.85,1.09-108.74,6.26-167.93,9.68-216.12,31.17-78.52,35.02-58.57,87.18-139.04,121.66-8.58,3.68-99.81,41.48-150.63,0Z"/>
      <path class="cls-5" d="M629.15,1168.23c-9.03-.56-64.11-5.7-125.64-3.12-104.79,4.39-162.29,25.07-204.59,14.71-73.86-18.09-155.51-144.07-173.8-645.69-17.17-17.58-146.98-154.35-110.79-304.68,5.25-21.83,19.15-75.44,67.98-112.02,53.98-40.44,126.56-39.41,179.48-11.94,23.03,11.95,39.19,27.28,49.16,38.3,32.62-29.92,84.31-69.67,155.98-96.3,180.55-67.08,387.08-13.4,509.82,92.69,59.96,51.83,109.67,124.59,127.45,150.63,41.89,61.32,63.51,91.52,75.31,133.25,31.53,111.52-7.2,232.47-52.14,274.92-4.92,4.65-25.64,23.21-52.14,52.14-12.13,13.24-28.41,31.92-34.76,40.55-30.88,41.95-8.16,92.16-11.19,179.95-2,58.14-3.01,87.21-17.6,112.01-65.5,111.3-300.41,91.69-313.02,90.41-1.58-.16-15.69-2.43-69.52-5.79ZM205.59,134.35c-45.05,0-80.19,24.51-82.09,25.87-38.64,27.47-60.84,73.5-65.97,136.81-9.44,116.32,81.61,198,92.02,206.93,3.45,4.26,6.89,8.52,10.34,12.78-.17,62.01,2.94,112.77,5.79,147.46,1.6,19.5,4.19,48.16,9.12,83.75,10.5,75.85,23.21,167.42,65.62,271.65,22.68,55.74,34.52,83.96,59.21,100.81,47.32,32.31,89.61,6.6,192.02-3.2,176.13-16.86,236.33,41.08,392.42-6.93,31.92-9.82,47.81-14.8,57.93-23.17,89.41-74-14.53-269.65,92.69-364.98,10.41-9.26,9.38-5.62,23.17-17.38,57.1-48.66,103.49-136.13,92.69-234.36-9.78-89.04-70.5-150.05-100.32-176.1l-.72-1c-19.1-36.13-57.46-97.32-125.85-147.14-60-43.7-114.89-58.08-155.41-68.27-54.69-13.75-170.13-33.37-302.8,13.18-66.12,23.2-115.61,55.5-147.06,79.32-10.35,11.17-20.7,22.35-31.05,33.52,1.58-10.84,3.17-21.68,4.75-32.53-12.87-12.87-27.4-22.57-43.21-28.83-14.91-5.91-29.57-8.19-43.3-8.19Z"/>
    </g>
    <path id="Eye" class="cls-5" d="M568.94,304.01c2.4,16.81-15.69,32.07-16.59,32.81-12.35,10.16-25.87,9.8-49.13,8.81-28.1-1.2-43.33-1.85-48.53-12.02-7.9-15.46,9.91-48.05,34.95-59.31,31.88-14.32,75.88,5.74,79.3,29.71Z"/>
    <path id="Eye-2" data-name="Eye" class="cls-5" d="M1071.06,319.17c-3.36,8.32-11.65,9.21-27.53,10.91-21.37,2.28-38.92,4.16-43.8-10.29-4.43-13.13,3.52-34.1,12.23-45.24,10.68-13.66,25.28-16.07,36.39-10.16,17.53,9.32,28.5,40.44,22.71,54.78Z"/>
    <path class="cls-2" d="M171.47,435.63c-16.53-23.32-55.68-85.41-45.9-160.07,2.64-20.14,7.28-49,30.9-72.48,28.74-28.58,65.22-26.56,67.98-26.36,36.06,2.62,57.61,27.85,61.8,32.95-21.04,24.01-45.8,56.78-67.98,98.84-25.54,48.44-39.17,93.13-46.79,127.12Z"/>
    <path class="cls-5" d="M976.75,600.47c32.83,10.23,67.35-19.09,69.58-15.21,2.34,4.08-31.23,45.24-74.15,39.54-39.9-5.3-59.86-48.03-61.8-52.34-6.54,42.5-85.71,64.98-142.13,65.52-85.56,.82-149.9-48.32-148.31-52.71,1.56-4.32,67.24,33.16,160.67,26.36,42.77-3.11,73.62-21.47,90.73-34.29,2.94-2.2,9.09-5.23,14.32-11.83,11.08-13.98,10.82-31.48,9.98-40.33h28.97c8.73,32.21,23.94,66.53,52.14,75.31Z"/>
    <path class="cls-3" d="M725.01,270.78c-.4,10.2,5.25,15.47,18.53,35.46,17.03,25.62,18.26,32.78,21.62,31.92,7.46-1.93,11.84-40.04-3.09-67.38-1.69-3.09-13.28-24.31-24.71-21.28-6.98,1.85-12,12.23-12.35,21.28Z"/>
    <path class="cls-3" d="M789.76,265.92c-1.42,7.52,1.93,14.53,8.67,28.24,17.28,35.11,18.22,36.5,19.76,36.26,6.92-1.08,11.05-32.97,2.12-59.63-2.32-6.92-7.43-22.17-15.59-22.48-6.63-.25-13.33,8.94-14.97,17.6Z"/>
    <path class="cls-3" d="M853.73,271.13c-.15,9.59,3.64,13.4,8.02,26.66,7.03,21.28,4.17,32.31,6.98,32.73,4.77,.72,18.48-30.22,9.57-59.41-2.73-8.94-8.98-22.56-14.64-22.12-5.39,.42-9.78,12.11-9.93,22.14Z"/>
    <path class="cls-2" d="M755.93,482.62c-4.02-11.73,3.48-24.6,6.13-29.14,20.15-34.53,69.49-37.06,135.95-39.54,59.66-2.22,101.25-2.99,119.67,23.99,8.06,11.81,12.34,30.59,5.41,44.06-6.91,13.41-18.99,9.9-57.93,31.59-17.2,9.58-21.61,14.04-34.76,17.38-5.19,1.32-17.92,4.27-37.67,1.43-23.45-3.37-32.52-12.21-56.52-19.61-50.9-15.7-74.54-13.4-80.29-30.16Z"/>
    <path class="cls-1" d="M467.06,300.68c-2.82-10.14,10.66-27.24,25.89-30.21,10.29-2.01,24.02,1.92,25.89,10.07,2.53,11.02-16.24,31.42-34.52,30.21-5.37-.36-15.26-2.88-17.26-10.07Z"/>
    <path class="cls-1" d="M1005.72,293.43c-4.79-5.67,4.78-27.81,17.38-28.97,4.62-.42,10.45,1.96,11.59,5.79,.76,2.58-1.41,5.62-5.79,11.59-4.86,6.62-7.38,9.96-11.59,11.59-.52,.2-8.77,3.33-11.59,0Z"/>
  </g>
</svg>